General                          : ChattChitto RG - Movies [R2L]
==========
Complete name                    : The Social Network 2010 720p BDRip H264 [ChattChitto RG]
Format                           : MPEG-4
Format profile                   : Base Media
Codec ID                         : isom
File size                        : 2.23 GiB
Duration                         : 2h 0mn
Overall bit rate                 : 2 651 Kbps
Encoded date                     : UTC 2011-02-13 17:50:54

Video
==========
ID                               : 1
Format                           : AVC
Format/Info                      : Advanced Video Codec
Format profile                   : High@L4.0
Format settings, CABAC           : Yes
Format settings, ReFrames        : 4 frames
Codec ID                         : avc1
Codec ID/Info                    : Advanced Video Coding
Duration                         : 2h 0mn
Bit rate mode                    : Variable
Bit rate                         : 2 300 Kbps
Maximum bit rate                 : 18.0 Mbps
Width                            : 1 280 pixels
Height                           : 528 pixels
Display aspect ratio             : 2.40:1
Frame rate mode                  : Constant
Frame rate                       : 23.976 fps
Resolution                       : 24 bits
Colorimetry                      : 4:2:0
Scan type                        : Progressive
Bits/(Pixel*Frame)               : 0.142
Stream size                      : 1.94 GiB (87%)
Writing library                  : x264 core 84 r1400M 20fa784
Encoded date                     : UTC 2011-02-13 17:41:47

Audio
==========
ID                               : 2
Format                           : AAC
Format/Info                      : Advanced Audio Codec
Format version                   : Version 4
Format profile                   : LC
Format settings, SBR             : No
Codec ID                         : 40
Duration                         : 2h 0mn
Bit rate mode                    : Variable
Bit rate                         : 352.8 Kbps
Maximum bit rate                 : 441 Kbps
Channel(s)                       : 6 channels
Channel positions                : Front: L C R, Rear: L R, LFE
Sampling rate                    : 48.0 KHz
Resolution                       : 16 bits
Stream size                      : 299 MiB (13%)
Encoded date                     : UTC 2011-02-13 17:52:03

Subtitles                        : English | French | Spanish


----------------------------------------------------
IMDB Link: http://www.imdb.com/title/tt1285016/
----------------------------------------------------



Screen Shots:
==============    
http://chattchitto.net/chattchittorg/movies/bdrip/2011/social_network/3.png 
http://chattchitto.net/chattchittorg/movies/bdrip/2011/social_network/4.png 
http://chattchitto.net/chattchittorg/movies/bdrip/2011/social_network/5.png 
http://chattchitto.net/chattchittorg/movies/bdrip/2011/social_network/6.png 
http://chattchitto.net/chattchittorg/movies/bdrip/2011/social_network/7.png



ScreenShots Comparison:
=========================  
http://screenshotcomparison.com/comparison/29233



Plot:
======
A story about the founders of the social-networking giant, Facebook. Screenplay adapted by acclaimed screenwriter Aaron Sorkin from Ben Mezrich's, 'The Accidental Billionaires'.



Release Info:
==============
original name .... : The Social Network 2010 720p BDRip H264 [ChattChitto RG]
ripper.............: Recalled2Life (R2L)
encoder............: Recalled2Life (R2L)
video codec........: H264/.MP4
video bitrate......: 2300 Kbps
audio codec........: AAC-LC
aspect ratio.......: 2.40:1
resolution.........: 1280 x 528
genre..............: Biography | Drama | History
runtime............: 2h 0mn
language...........: English
rating.............: PG-13
subtitles..........: English | French | Spanish
sample.............: Yes [15.5 MB]
2ch Audio..........: 2ch Audio for XBox Viewers
Compatibility .....: XBox | PS3 | WD Live



Source:
========
The Social Network 1080p Bluray  MPEG-4 AVC/DTSHD-R2L [28.5 GB] Welcome!



Notes:
=======
ChattChitto RG Encourages Burning this Film with ConvertXtoDVD and Playing with VLC media player.
XBox 360 | PS3 | WD Live - Compatible 
Enhanced for your viewing pleasure ;)